<svg width="188" height="58" viewBox="0 0 188 58" fill="none" xmlns="http://www.w3.org/2000/svg">
<g clip-path="url(#clip0_8_883)">
<path fill-rule="evenodd" clip-rule="evenodd" d="M21.0751 1.41016L0.455078 56.9002H16.2251L18.9551 49.0202H31.0851V56.9002H46.5451V1.41016H21.0751ZM30.7751 32.9502H24.4051L30.7751 19.6102V32.9502Z" fill="white"/>
<path fill-rule="evenodd" clip-rule="evenodd" d="M92.3347 0.800039H67.7747C59.5847 0.800039 56.8547 11.41 56.8547 11.41L51.0947 44.46C51.0947 44.46 48.9747 56.89 59.5847 56.89H82.6247L85.0547 40.52H72.6247C72.6247 40.52 67.1647 41.73 68.0747 35.67C68.3747 34.76 70.5047 22.63 70.5047 22.63C70.5047 22.63 71.1147 18.38 73.8447 18.38H89.3047L92.3347 0.790039V0.800039Z" fill="white"/>
<path fill-rule="evenodd" clip-rule="evenodd" d="M99.605 1.10005L88.085 56.9H103.245L108.405 33.24L109.615 56.9H117.805L126.895 33.24L122.345 56.9H135.995L147.215 0.800049H127.805L118.405 24.15V1.10005H99.605Z" fill="white"/>
<path fill-rule="evenodd" clip-rule="evenodd" d="M143.575 56.9L154.185 0.800049H185.415L182.995 16.87H166.615L165.705 22.33H181.475L179.055 34.46L162.985 34.15L162.075 39.6101H178.145L174.805 56.9H143.575Z" fill="white"/>
<path fill-rule="evenodd" clip-rule="evenodd" d="M182.695 55.99C180.575 55.99 179.355 54.47 179.355 52.35C179.355 50.23 180.565 48.71 182.695 48.71C184.825 48.71 186.335 50.23 186.335 52.35C186.335 54.47 184.815 55.99 182.695 55.99ZM182.695 57.2C185.425 57.2 187.545 54.77 187.545 52.35C187.545 49.62 185.425 47.5 182.695 47.5C179.965 47.5 177.845 49.62 177.845 52.35C177.845 54.78 179.965 57.2 182.695 57.2ZM183.905 52.65C184.815 52.65 185.425 52.35 185.425 51.13C185.425 49.91 184.515 49.61 183.305 49.61H180.875V54.76H181.785V52.64H182.695L183.905 54.76H185.115L183.905 52.64V52.65ZM181.785 52.04V50.52H182.995C183.605 50.52 184.205 50.52 184.205 51.13C184.205 51.74 183.905 52.04 183.295 52.04H181.775H181.785Z" fill="white"/>
</g>
<defs>
<clipPath id="clip0_8_883">
<rect width="187.09" height="56.4" fill="white" transform="translate(0.455078 0.800049)"/>
</clipPath>
</defs>
</svg>
