<svg width="24" height="24" viewBox="0 0 24 24" fill="none" xmlns="http://www.w3.org/2000/svg">
<path d="M21.1108 8.1816C20.9722 8.2896 18.5241 9.6744 18.5241 12.7536C18.5241 16.3152 21.6392 17.5752 21.7324 17.6064C21.7181 17.6832 21.2375 19.332 20.09 21.012C19.0668 22.4904 17.9982 23.9664 16.3725 23.9664C14.7469 23.9664 14.3285 23.0184 12.4518 23.0184C10.623 23.0184 9.97273 23.9976 8.48574 23.9976C6.99875 23.9976 5.9612 22.6296 4.76826 20.9496C3.38646 18.9768 2.27002 15.912 2.27002 13.0032C2.27002 8.3376 5.29182 5.8632 8.2658 5.8632C9.84603 5.8632 11.1633 6.9048 12.1554 6.9048C13.0997 6.9048 14.5724 5.8008 16.3701 5.8008C17.0515 5.8008 19.4995 5.8632 21.1108 8.1816ZM15.5167 3.8256C16.2602 2.94 16.7861 1.7112 16.7861 0.4824C16.7861 0.312 16.7718 0.1392 16.7407 0C15.531 0.0456 14.0918 0.8088 13.224 1.8192C12.5427 2.5968 11.9068 3.8256 11.9068 5.0712C11.9068 5.2584 11.9379 5.4456 11.9522 5.5056C12.0287 5.52 12.153 5.5368 12.2773 5.5368C13.3627 5.5368 14.7278 4.8072 15.5167 3.8256Z" fill="black"/>
</svg>
